<?xml version="1.0" standalone="no"?>
<!DOCTYPE svg PUBLIC "-//W3C//DTD SVG 20010904//EN"
 "http://www.w3.org/TR/2001/REC-SVG-20010904/DTD/svg10.dtd">
<svg version="1.0" xmlns="http://www.w3.org/2000/svg"
 width="260.000000pt" height="260.000000pt" viewBox="0 0 260.000000 260.000000"
 preserveAspectRatio="xMidYMid meet">
<metadata>
Created by potrace 1.11, written by Peter Selinger 2001-2013
</metadata>
<g transform="translate(0.000000,260.000000) scale(0.100000,-0.100000)"
fill="#000000" stroke="none">
<path d="M1165 2593 c-26 -3 -53 -7 -174 -29 -13 -3 -62 -18 -110 -34 -455
-156 -784 -548 -865 -1030 -14 -85 -15 -340 -1 -405 21 -100 28 -128 51 -200
29 -90 92 -222 146 -305 180 -279 483 -487 813 -560 147 -32 388 -35 525 -5
14 3 39 8 55 11 53 9 178 55 261 95 337 163 585 463 688 829 9 30 18 73 22 95
3 22 10 60 14 85 9 48 6 305 -4 355 -4 17 -11 53 -16 80 -29 141 -106 322
-193 451 -45 67 -57 82 -122 155 -168 188 -431 337 -686 389 -97 20 -318 33
-404 23z"/>
</g>
</svg>
